<svg height="512pt" viewBox="0 0 512 512.001" width="512pt" xmlns="http://www.w3.org/2000/svg"><path d="m220 492c0 11.046875-8.953125 20-20 20h-120c-44.113281 0-80-35.886719-80-80v-352c0-44.113281 35.886719-80 80-80h278c44.113281 0 80 35.886719 80 80v133c0 11.046875-8.953125 20-20 20s-20-8.953125-20-20v-133c0-22.054688-17.945312-40-40-40h-278c-22.054688 0-40 17.945312-40 40v352c0 22.054688 17.945312 40 40 40h120c11.046875 0 20 8.953125 20 20zm-98.917969-232c0-11.046875-10.035156-20-21.082031-20s-20 8.953125-20 20 8.953125 20 20 20 21.082031-8.953125 21.082031-20zm78.917969 0c0-11.046875-8.953125-20-20-20s-20 8.953125-20 20 8.953125 20 20 20 20-8.953125 20-20zm39 0c0 11.046875 8.953125 20 20 20s20-8.953125 20-20-8.953125-20-20-20-20 8.953125-20 20zm-118 76c0-11.046875-9.953125-20-21-20s-20 8.953125-20 20 8.953125 20 20 20 21-8.953125 21-20zm79 0c0-11.046875-8.953125-20-20-20s-20 8.953125-20 20 8.953125 20 20 20 20-8.953125 20-20zm-100 56c-11.046875 0-20 8.953125-20 20s8.953125 20 20 20 20-8.953125 20-20-8.953125-20-20-20zm79 0c-11.046875 0-20 8.953125-20 20s8.953125 20 20 20 20-8.953125 20-20-8.953125-20-20-20zm159-192h-238c-11.046875 0-20-8.953125-20-20v-80c0-11.046875 8.953125-20 20-20h238c11.046875 0 20 8.953125 20 20v80c0 11.046875-8.953125 20-20 20zm-20-80h-198v40h198zm188.761719 270.496094c-3.945313 4.3125-9.347657 6.503906-14.765625 6.503906-4.820313 0-9.652344-1.730469-13.492188-5.238281l-2.503906-2.289063v66.179688c0 31.070312-25.257812 56.347656-56.304688 56.347656h-112.390624c-31.046876 0-56.304688-25.277344-56.304688-56.347656v-65.265625l-1.503906 1.375c-8.152344 7.453125-20.800782 6.886719-28.257813-1.265625-7.453125-8.152344-6.886719-20.804688 1.265625-28.257813l103.234375-94.378906c21.8125-19.941406 54.710938-19.941406 76.523438 0l103.234375 94.378906c8.152344 7.453125 8.71875 20.105469 1.265625 28.257813zm-70.761719-37.59375-60.726562-55.519532c-6.425782-5.875-16.117188-5.875-22.546876 0l-61.726562 56.433594v101.835938c0 9.011718 7.316406 16.347656 16.304688 16.347656h112.390624c8.992188 0 16.304688-7.335938 16.304688-16.347656zm0 0"/></svg>